<svg xmlns="http://www.w3.org/2000/svg" width="167.349" height="351.825" viewBox="0 0 167.349 351.825">
  <path id="Subtraction_1" data-name="Subtraction 1" d="M-46.5,202.449h0v-2.765L119.553,33.669c-.053,1.429-.124,2.863-.21,4.263L-45.134,202.371c-.45.027-.909.054-1.365.078Zm12.852-1.155h0L118.264,49.416c-.207,1.625-.432,3.212-.666,4.72L-28.927,200.63c-1.591.245-3.178.468-4.718.664Zm17.621-3.16h0l0,0h0L115.1,67.036c-.421,1.808-.875,3.626-1.35,5.4L-10.623,196.787c-1.884.5-3.651.941-5.4,1.346h0ZM4.6,191.969v0L108.931,87.662c-.826,2.245-1.7,4.485-2.6,6.658L11.259,189.368C9.033,190.29,6.794,191.165,4.6,191.969Zm-51.1-2.689h0l0,0v-4.051L119.507,19.256c.058,1.315.1,2.636.128,3.927ZM31.833,179.2v0l64.33-64.317c-2.142,3.7-4.452,7.374-6.863,10.916L42.744,172.346C39.193,174.763,35.523,177.07,31.833,179.2ZM-46.5,174.823v-4.055l44.953-44.942a113.217,113.217,0,0,0,10.961-6.9l-55.913,55.9Zm0-14.458v-4.053l20.544-20.54c1.943-.536,3.907-1.135,5.837-1.782L-46.5,160.363Zm0-14.457v-4.056l2.687-2.687c1.524-.163,3.09-.364,4.655-.6l-7.34,7.339ZM35.889,92.453h0a113.191,113.191,0,0,0,6.9-10.95L118.418,5.89c.145,1.208.279,2.437.4,3.654ZM50.958,62.929h0c.645-1.923,1.244-3.886,1.782-5.833L116.46-6.611c.222,1.145.433,2.3.629,3.426Zm4.58-19.036v0c.232-1.548.434-3.113.6-4.651l57.619-57.605c.3,1.113.567,2.169.828,3.228L55.54,43.891Zm1.247-15.7v0c0-.383.005-.773.005-1.16,0-.951-.012-1.914-.035-2.861L110.4-29.465c.352,1.037.689,2.063,1,3.051l-54.614,54.6Zm-.691-13.767h0l0,0c-.129-1.166-.283-2.375-.458-3.593l50.812-50.8c.4.962.788,1.935,1.164,2.891ZM54.014,2.045v0h0c-.245-1.083-.511-2.181-.79-3.263l48.736-48.724c.451.923.879,1.821,1.31,2.745L54.015,2.044ZM50.836-9.236h0c-.338-1-.7-2-1.063-2.989l47.2-47.19c.479.845.965,1.723,1.447,2.608Zm-4.1-10.358h0c-.432-.947-.868-1.874-1.3-2.754L91.514-68.416c.536.825,1.066,1.659,1.578,2.478ZM41.83-29.146h0c-.515-.893-1.009-1.725-1.51-2.543L85.605-76.967c.6.821,1.175,1.613,1.7,2.354Zm-5.637-8.822h0c-.547-.773-1.121-1.563-1.7-2.348L79.262-85.081c.622.75,1.235,1.5,1.823,2.234Zm-6.322-8.138h0c-.609-.714-1.246-1.441-1.891-2.161l44.514-44.5c.669.717,1.3,1.408,1.94,2.114Zm-6.981-7.477h0c-.687-.672-1.385-1.339-2.074-1.98l44.491-44.479c.719.686,1.392,1.339,2.058,2Zm-7.634-6.826h0c-.725-.592-1.485-1.2-2.258-1.8L57.7-106.9c.738.625,1.469,1.258,2.175,1.88L15.257-60.41Zm-8.3-6.163h0c-.783-.526-1.607-1.066-2.45-1.6l45.162-45.152c.775.584,1.547,1.176,2.3,1.76ZM-2.032-72.04h0c-.844-.46-1.736-.932-2.651-1.4L41.21-119.326c.823.547,1.636,1.1,2.417,1.638Zm-9.738-4.722h0c-.9-.385-1.868-.782-2.875-1.181L32.3-124.879c.844.492,1.7,1,2.544,1.511L-11.769-76.762Zm-10.567-3.893h0c-1.033-.323-2.086-.635-3.128-.928l48.393-48.381c.926.467,1.827.93,2.677,1.378L-22.336-80.655ZM-33.87-83.593h0c-1.125-.225-2.279-.436-3.428-.628l50.346-50.34c.987.423,1.909.827,2.82,1.236L-33.87-83.594ZM-46.5-85.425V-89.48L2.648-138.622c1,.352,2,.717,2.973,1.083L-46.5-85.427Zm0-14.46v-4.054l38.171-38.167c1.076.3,2.132.611,3.14.915L-46.5-99.887Zm0-14.458V-118.4l26.552-26.549c1.127.235,2.246.48,3.328.728L-46.5-114.345Zm0-14.46v-4.054l14.208-14.207c1.185.16,2.376.333,3.541.514L-46.5-128.805Zm0-14.459v-4.055l1.023-1.023c1.269.075,2.545.164,3.791.265l-4.812,4.812Z" transform="translate(47.21 148.853)" fill="#363636" stroke="rgba(0,0,0,0)" stroke-miterlimit="10" stroke-width="1"/>
</svg>
