<svg xmlns="http://www.w3.org/2000/svg" width="24.678" height="25.03" viewBox="0 0 24.678 25.03">
  <g id="Group_409" data-name="Group 409" transform="translate(-320 -21.97)">
    <path id="Path_132" data-name="Path 132" d="M0,0H7.593V16.013H0Z" transform="translate(320 21.97)" fill="#fff"/>
    <path id="Path_133" data-name="Path 133" d="M9.966,0A9.966,9.966,0,1,1,0,9.966,9.966,9.966,0,0,1,9.966,0Z" transform="translate(320 27.068)" fill="#fff"/>
    <path id="Path_131" data-name="Path 131" d="M9.729,0a9.85,9.85,0,0,1,9.729,9.966,9.85,9.85,0,0,1-9.729,9.966A9.85,9.85,0,0,1,0,9.966,9.85,9.85,0,0,1,9.729,0Z" transform="translate(322.847 24.695)" fill="#363636"/>
    <path id="Path_131_-_Outline" data-name="Path 131 - Outline" d="M9.729-.5A10.361,10.361,0,0,1,19.958,9.966,10.361,10.361,0,0,1,9.729,20.432,10.361,10.361,0,0,1-.5,9.966,10.361,10.361,0,0,1,9.729-.5Zm0,19.932a9.36,9.36,0,0,0,9.229-9.466A9.36,9.36,0,0,0,9.729.5,9.36,9.36,0,0,0,.5,9.966,9.36,9.36,0,0,0,9.729,19.432Zm0-17.085A7.511,7.511,0,0,1,17.11,9.966a7.511,7.511,0,0,1-7.381,7.619A7.511,7.511,0,0,1,2.347,9.966,7.511,7.511,0,0,1,9.729,2.347Zm0,14.237A6.511,6.511,0,0,0,16.11,9.966,6.511,6.511,0,0,0,9.729,3.347,6.511,6.511,0,0,0,3.347,9.966,6.511,6.511,0,0,0,9.729,16.585Z" transform="translate(322.847 24.695)" fill="#fff"/>
    <path id="Path_130" data-name="Path 130" d="M2.136,0A2.136,2.136,0,1,1,0,2.136,2.136,2.136,0,0,1,2.136,0Z" transform="translate(340.407 42.729)" fill="#fff"/>
  </g>
</svg>
