<svg xmlns="http://www.w3.org/2000/svg" xmlns:xlink="http://www.w3.org/1999/xlink" width="61.785" height="108.344" viewBox="0 0 61.785 108.344">
  <defs>
    <clipPath id="clip-path">
      <rect id="Rectangle_68" data-name="Rectangle 68" width="61.785" height="108.344" fill="none"/>
    </clipPath>
  </defs>
  <g id="Group_20" data-name="Group 20" opacity="0.521">
    <g id="Group_19" data-name="Group 19" clip-path="url(#clip-path)">
      <g id="Group_18" data-name="Group 18">
        <g id="Group_17" data-name="Group 17" clip-path="url(#clip-path)">
          <g id="Group_16" data-name="Group 16" opacity="0.4" style="mix-blend-mode: color-dodge;isolation: isolate">
            <g id="Group_15" data-name="Group 15">
              <g id="Group_14" data-name="Group 14" clip-path="url(#clip-path)">
                <path id="Path_4" data-name="Path 4" d="M3.02,6.04A3.02,3.02,0,1,0,0,3.02,3.021,3.021,0,0,0,3.02,6.04M30.893,31.615a3.02,3.02,0,1,0-3.019-3.02,3.02,3.02,0,0,0,3.019,3.02m-27.873,0A3.02,3.02,0,1,0,0,28.6a3.019,3.019,0,0,0,3.019,3.02M58.766,57.192a3.02,3.02,0,1,0-3.019-3.02,3.02,3.02,0,0,0,3.019,3.02m-27.874,0a3.02,3.02,0,1,0-3.019-3.02,3.02,3.02,0,0,0,3.019,3.02m-27.873,0A3.02,3.02,0,1,0,0,54.172a3.02,3.02,0,0,0,3.019,3.02M30.892,82.768a3.02,3.02,0,1,0-3.018-3.02,3.019,3.019,0,0,0,3.018,3.02m-27.872,0A3.02,3.02,0,1,0,0,79.748a3.02,3.02,0,0,0,3.019,3.02m0,25.576A3.02,3.02,0,1,0,0,105.324a3.021,3.021,0,0,0,3.02,3.02" fill="#fff"/>
              </g>
            </g>
          </g>
        </g>
      </g>
    </g>
  </g>
</svg>
